<?xml version="1.0" encoding="UTF-8"?>
<svg width="752pt" height="752pt" version="1.1" viewBox="0 0 752 752" xmlns="http://www.w3.org/2000/svg">
 <g>
  <rect width="752" height="752" fill="#fff"/>
  <path d="m581.54 375.53c-5.2109 0-9.4727 4.2617-9.4727 9.4727 0 109.87-89.508 199.85-199.85 199.85s-199.85-89.508-199.85-199.38c0-105.61 81.93-191.8 185.64-198.9l-8.5234 6.6289c-4.2617 3.3164-5.2109 9.4727-1.8945 13.734 1.8945 2.3672 4.7344 3.7891 7.5781 3.7891 1.8945 0 4.2617-0.47266 5.6836-1.8945l32.203-24.625c2.3672-1.8945 3.7891-4.7344 3.7891-8.0508s-1.8945-6.1562-4.2617-7.5781l-32.203-21.312c-4.2617-2.8398-10.418-1.8945-13.262 2.8398-2.8398 4.2617-1.8945 10.418 2.8398 13.262l6.6289 4.2617c-113.66 7.5781-203.64 102.29-203.64 217.85 0 120.76 98.031 218.79 218.79 218.79 120.77 0 219.27-98.031 219.27-218.79 0-5.2109-4.2617-9.9453-9.4727-9.9453z"/>
  <path d="m585.8 334.8c0 6.5391-5.3008 11.84-11.84 11.84-6.5391 0-11.84-5.3008-11.84-11.84 0-6.5391 5.3008-11.84 11.84-11.84 6.5391 0 11.84 5.3008 11.84 11.84"/>
  <path d="m570.64 290.76c0 6.5391-5.3008 11.84-11.84 11.84-6.5391 0-11.84-5.3008-11.84-11.84 0-6.5391 5.3008-11.84 11.84-11.84 6.5391 0 11.84 5.3008 11.84 11.84"/>
  <path d="m542.23 249.55c0 6.5391-5.3008 11.84-11.836 11.84-6.5391 0-11.84-5.3008-11.84-11.84 0-6.5391 5.3008-11.84 11.84-11.84 6.5352 0 11.836 5.3008 11.836 11.84"/>
  <path d="m502.92 214.04c0 6.5391-5.3008 11.84-11.84 11.84-6.5391 0-11.84-5.3008-11.84-11.84 0-6.5391 5.3008-11.84 11.84-11.84 6.5391 0 11.84 5.3008 11.84 11.84"/>
  <path d="m456.04 189.41c0 6.5391-5.3008 11.84-11.84 11.84-6.5352 0-11.836-5.3008-11.836-11.84 0-6.5391 5.3008-11.84 11.836-11.84 6.5391 0 11.84 5.3008 11.84 11.84"/>
  <path d="m456.04 338.11c0-5.2109-4.2617-9.9453-9.9453-9.9453h-128.34l21.785-21.785c3.7891-3.7891 3.7891-9.9453 0-13.734-1.8945-1.8945-4.2617-2.8398-7.1055-2.8398-2.3672 0-5.2109 0.94531-7.1055 2.8398l-38.359 38.359c-3.7891 3.7891-3.7891 9.9453 0 13.734l38.359 38.832c1.8945 1.8945 4.2617 2.8398 7.1055 2.8398 2.8398 0 5.2109-0.94531 7.1055-2.8398 1.8945-1.8945 2.8398-4.2617 2.8398-7.1055 0-2.8398-0.94531-5.2109-2.8398-7.1055l-21.785-22.258h128.34c5.2109 0.95312 9.9453-3.7812 9.9453-8.9922z"/>
  <path d="m410.57 486.35c2.8398 0 5.2109-0.94531 7.1055-2.8398l38.359-38.832c3.7891-3.7891 3.7891-9.9453 0-13.734l-38.359-38.359c-3.7891-3.7891-9.9453-3.7891-13.734 0-3.7891 3.7891-3.7891 9.9453 0 13.734l21.785 21.785-128.82-0.007812c-5.2109 0-9.9453 4.2617-9.9453 9.9453 0 5.2109 4.2617 9.9453 9.9453 9.9453h128.34l-21.785 22.258c-1.8945 1.8945-2.8398 4.2617-2.8398 7.1055 0 2.8398 0.94531 5.2109 2.8398 7.1055 1.8945 0.94531 4.2617 1.8945 7.1055 1.8945z"/>
 </g>
</svg>
